<?xml version="1.0" encoding="UTF-8" standalone="no"?>
<svg
   viewBox="0 0 45 45"
   version="1.1"
   id="svg24"
   sodipodi:docname="icon.svg"
   width="45"
   height="45"
   inkscape:version="1.1.1 (eb90963e84, 2021-10-02)"
   xmlns:inkscape="http://www.inkscape.org/namespaces/inkscape"
   xmlns:sodipodi="http://sodipodi.sourceforge.net/DTD/sodipodi-0.dtd"
   xmlns="http://www.w3.org/2000/svg"
   xmlns:svg="http://www.w3.org/2000/svg"
   xmlns:rdf="http://www.w3.org/1999/02/22-rdf-syntax-ns#"
   xmlns:cc="http://creativecommons.org/ns#"
   xmlns:dc="http://purl.org/dc/elements/1.1/">
  <defs
     id="defs28" />
  <sodipodi:namedview
     id="namedview26"
     pagecolor="#ffffff"
     bordercolor="#666666"
     borderopacity="1.0"
     inkscape:pageshadow="2"
     inkscape:pageopacity="0.0"
     inkscape:pagecheckerboard="0"
     showgrid="false"
     inkscape:zoom="5.99273"
     inkscape:cx="123.56639"
     inkscape:cy="22.443861"
     inkscape:window-width="1848"
     inkscape:window-height="1016"
     inkscape:window-x="0"
     inkscape:window-y="0"
     inkscape:window-maximized="1"
     inkscape:current-layer="svg24" />
  <title
     id="title2">Spring Logos and Graphics</title>
  <g
     style="fill:#6db33f"
     id="g22"
     transform="translate(0.73070308,0.00195548)">
    <path
       d="M 39.4,3.7 C 38.8,5.2 38,6.5 37.1,7.7 33.2,3.7 27.8,1.3 21.9,1.3 10.2,1.3 0.6,10.8 0.6,22.6 c 0,6.2 2.6,11.7 6.8,15.6 l 0.8,0.7 c 3.7,3.1 8.5,5 13.7,5 11.2,0 20.4,-8.7 21.2,-19.8 0.6,-5.4 -1,-12.3 -3.7,-20.4 z M 10.5,38.3 C 9.9,39.1 8.7,39.2 7.9,38.6 7.1,37.9 7,36.8 7.6,36 c 0.6,-0.8 1.8,-0.9 2.6,-0.3 0.8,0.7 0.9,1.8 0.3,2.6 z m 28.8,-6.4 c -5.2,7 -16.5,4.6 -23.6,5 0,0 -1.3,0.1 -2.6,0.3 0,0 0.5,-0.2 1.1,-0.4 5,-1.7 7.4,-2.1 10.5,-3.7 5.8,-3 11.5,-9.4 12.7,-16.1 -2.2,6.4 -8.9,12 -14.9,14.2 -4.2,1.5 -11.7,3 -11.7,3 0,0 -0.3,-0.2 -0.3,-0.2 -5.1,-2.5 -5.3,-13.6 4,-17.1 4.1,-1.6 8,-0.7 12.4,-1.8 4.7,-1 10.1,-4.5 12.3,-9.1 2.5,7.3 5.5,18.8 0.1,25.9 z"
       id="path4" />
  </g>
  <metadata
     id="metadata110">
    <rdf:RDF>
      <cc:Work
         rdf:about="">
        <dc:title>Spring Logos and Graphics</dc:title>
      </cc:Work>
    </rdf:RDF>
  </metadata>
</svg>
